<?xml version="1.0" encoding="UTF-8" standalone="no"?>
<svg
   width="2567"
   height="1805"
   overflow="hidden"
   version="1.1"
   id="svg1124"
   sodipodi:docname="workflow2.svg"
   inkscape:version="1.1.1 (c3084ef, 2021-09-22)"
   xmlns:inkscape="http://www.inkscape.org/namespaces/inkscape"
   xmlns:sodipodi="http://sodipodi.sourceforge.net/DTD/sodipodi-0.dtd"
   xmlns="http://www.w3.org/2000/svg"
   xmlns:svg="http://www.w3.org/2000/svg">
  <sodipodi:namedview
     id="namedview1126"
     pagecolor="#ffffff"
     bordercolor="#666666"
     borderopacity="1.0"
     inkscape:pageshadow="2"
     inkscape:pageopacity="0.0"
     inkscape:pagecheckerboard="0"
     showgrid="false"
     inkscape:zoom="0.46703601"
     inkscape:cx="1253.6507"
     inkscape:cy="928.19395"
     inkscape:window-width="1920"
     inkscape:window-height="1027"
     inkscape:window-x="0"
     inkscape:window-y="25"
     inkscape:window-maximized="0"
     inkscape:current-layer="svg1124" />
  <defs
     id="defs1046">
    <clipPath
       id="clip0">
      <rect
         x="751"
         y="275"
         width="2567"
         height="1805"
         id="rect1043" />
    </clipPath>
  </defs>
  <path
     d="m 509.85417,268.31321 -2.6e-4,58.83991 h 2.29166 l 2.6e-4,-170.18034 z m -12.60437,54.25651 13.74984,27.5001 13.75016,-27.5 z"
     fill="#4472c4"
     fill-rule="nonzero"
     fill-opacity="1"
     id="path1060"
     sodipodi:nodetypes="ccccccccc" />
  <path
     d="m 509.85417,763.72844 -2.6e-4,58.84031 h 2.29166 l 2.6e-4,-168.03958 z m -12.60437,54.25691 13.74984,27.5 13.75016,-27.4999 z"
     fill="#4472c4"
     fill-rule="nonzero"
     fill-opacity="1"
     id="path1062"
     sodipodi:nodetypes="ccccccccc" />
  <path
     d="m 2053.8542,843.45146 -3e-4,58.84031 h 2.2917 l 2e-4,-58.84029 z m -12.6044,54.25691 13.7498,27.5 13.7502,-27.4999 z"
     fill="#4472c4"
     fill-rule="nonzero"
     fill-opacity="1"
     id="path1074" />
  <path
     d="m 2048.8542,535.45146 -3e-4,58.84031 h 2.2917 l 2e-4,-58.84029 z m -12.6044,54.25691 13.7498,27.5 13.7502,-27.4999 z"
     fill="#4472c4"
     fill-rule="nonzero"
     fill-opacity="1"
     id="path1080" />
  <path
     d="m 2046.8542,227.45143 -3e-4,58.84031 h 2.2917 l 2e-4,-58.84029 z m -12.6044,54.25691 13.7498,27.5 13.7502,-27.4999 z"
     fill="#4472c4"
     fill-rule="nonzero"
     fill-opacity="1"
     id="path1090" />
  <path
     d="m 2055.8542,1150.4515 -3e-4,58.8403 h 2.2917 l 2e-4,-58.8403 z m -12.6044,54.2569 13.7498,27.5 13.7502,-27.4999 z"
     fill="#4472c4"
     fill-rule="nonzero"
     fill-opacity="1"
     id="path1112" />
  <path
     d="m 2055.8542,1457.4515 -3e-4,58.8403 h 2.2917 l 2e-4,-58.8403 z m -12.6044,54.2569 13.7498,27.5 13.7502,-27.4999 z"
     fill="#4472c4"
     fill-rule="nonzero"
     fill-opacity="1"
     id="path1120" />
  <path
     d="m 509.85417,1110.59 -2.6e-4,58.8403 h 2.29166 l 2.6e-4,-168.0396 z m -12.60437,54.2569 13.74984,27.5 13.75016,-27.4999 z"
     fill="#4472c4"
     fill-rule="nonzero"
     fill-opacity="1"
     id="path3713"
     sodipodi:nodetypes="ccccccccc" />
  <path
     d="m 509.85417,1457.4516 -2.6e-4,58.8403 h 2.29166 l 2.6e-4,-168.0396 z m -12.60437,54.2569 13.74984,27.5 13.75016,-27.4999 z"
     fill="#4472c4"
     fill-rule="nonzero"
     fill-opacity="1"
     id="path3725"
     sodipodi:nodetypes="ccccccccc" />
  <g
     id="g3631"
     transform="translate(0,-3)">
    <path
       d="M 7.5,44.334 C 7.5,23.439 24.439,6.5 45.334,6.5 H 977.67 c 20.89,0 37.83,16.939 37.83,37.834 v 151.332 c 0,20.895 -16.94,37.834 -37.83,37.834 H 45.334 C 24.439,233.5 7.5,216.561 7.5,195.666 Z"
       stroke="#2f528f"
       stroke-width="4.58333"
       stroke-linecap="butt"
       stroke-linejoin="miter"
       stroke-miterlimit="8"
       stroke-opacity="1"
       fill="#dae3f3"
       fill-rule="evenodd"
       fill-opacity="1"
       id="path1048" />
    <text
       fill="#000000"
       fill-opacity="1"
       font-family="Calibri, Calibri_MSFontService, sans-serif"
       font-style="normal"
       font-variant="normal"
       font-weight="400"
       font-stretch="normal"
       font-size="70.695px"
       text-anchor="start"
       direction="ltr"
       writing-mode="lr-tb"
       unicode-bidi="normal"
       text-decoration="none"
       id="text1050"
       style="text-decoration:none;text-decoration-line:none;stroke-width:1"
       x="39.46936"
       y="139.55504">Sequencing quality control</text>
  </g>
  <g
     id="g3627"
     transform="translate(0,-42.361511)">
    <path
       d="M 7.4999999,457.48293 C 7.4999999,422.82167 47.422,394.723 96.668,394.723 H 926.33 c 49.25,0 89.17,28.09867 89.17,62.75993 v 251.0327 c 0,34.66408 -39.92,62.76134 -89.17,62.76134 H 96.668 c -49.246,0 -89.1680001,-28.09726 -89.1680001,-62.76134 z"
       stroke="#2f528f"
       stroke-width="4.58333"
       stroke-linecap="butt"
       stroke-linejoin="miter"
       stroke-miterlimit="8"
       stroke-opacity="1"
       fill="#dae3f3"
       fill-rule="evenodd"
       fill-opacity="1"
       id="path1052" />
    <text
       fill="#000000"
       fill-opacity="1"
       font-family="Calibri, Calibri_MSFontService, sans-serif"
       font-style="normal"
       font-variant="normal"
       font-weight="400"
       font-stretch="normal"
       font-size="70.695px"
       text-anchor="start"
       direction="ltr"
       writing-mode="lr-tb"
       unicode-bidi="normal"
       text-decoration="none"
       id="text1058"
       style="text-decoration:none;text-decoration-line:none;stroke-width:1"
       x="217.29886"
       y="518.23206">Read alignment,<tspan
   fill="#000000"
   fill-opacity="1"
   font-family="Calibri, Calibri_MSFontService, sans-serif"
   font-style="normal"
   font-variant="normal"
   font-weight="400"
   font-stretch="normal"
   font-size="70.695px"
   text-anchor="start"
   direction="ltr"
   writing-mode="lr-tb"
   unicode-bidi="normal"
   text-decoration="none"
   x="197.87723"
   y="602.55499"
   id="tspan1054"
   style="text-decoration:none;text-decoration-line:none;stroke-width:1.17406">Feature counting,</tspan><tspan
   fill="#000000"
   fill-opacity="1"
   font-family="Calibri, Calibri_MSFontService, sans-serif"
   font-style="normal"
   font-variant="normal"
   font-weight="400"
   font-stretch="normal"
   font-size="70.695px"
   text-anchor="start"
   direction="ltr"
   writing-mode="lr-tb"
   unicode-bidi="normal"
   text-decoration="none"
   x="297.89365"
   y="686.87799"
   id="tspan1056"
   style="text-decoration:none;text-decoration-line:none;stroke-width:1.17406">Cell calling</tspan></text>
  </g>
  <g
     id="g3621"
     transform="translate(0,-75.722983)">
    <path
       d="m 7.5,961.5 c 0,-20.99 17.014,-38 38.001,-38 H 977.5 c 20.99,0 38,17.01 38,38 v 152 c 0,20.99 -17.01,38 -38,38 H 45.501 c -20.987,0 -38.001,-17.01 -38.001,-38 z"
       stroke="#2f528f"
       stroke-width="4.58333"
       stroke-linecap="butt"
       stroke-linejoin="miter"
       stroke-miterlimit="8"
       stroke-opacity="1"
       fill="#dae3f3"
       fill-rule="evenodd"
       fill-opacity="1"
       id="path1064" />
    <text
       fill="#000000"
       fill-opacity="1"
       font-family="Calibri, Calibri_MSFontService, sans-serif"
       font-style="normal"
       font-variant="normal"
       font-weight="400"
       font-stretch="normal"
       font-size="70.695px"
       text-anchor="start"
       direction="ltr"
       writing-mode="lr-tb"
       unicode-bidi="normal"
       text-decoration="none"
       id="text1066"
       style="text-decoration:none;text-decoration-line:none;stroke-width:1"
       x="252.02036"
       y="1057.2449">Quality control</text>
  </g>
  <g
     id="g3737"
     transform="translate(0,-4.9999609)">
    <path
       d="m 1556.5,662.501 c 0,-20.987 17.01,-38.001 38,-38.001 h 932 c 20.99,0 38,17.014 38,38.001 V 814.5 c 0,20.99 -17.01,38 -38,38 h -932 c -20.99,0 -38,-17.01 -38,-38 z"
       stroke="#2f528f"
       stroke-width="4.58333"
       stroke-linecap="butt"
       stroke-linejoin="miter"
       stroke-miterlimit="8"
       stroke-opacity="1"
       fill="#dae3f3"
       fill-rule="evenodd"
       fill-opacity="1"
       id="path1070" />
    <text
       fill="#000000"
       fill-opacity="1"
       font-family="Calibri, Calibri_MSFontService, sans-serif"
       font-style="normal"
       font-variant="normal"
       font-weight="400"
       font-stretch="normal"
       font-size="70.695px"
       text-anchor="start"
       direction="ltr"
       writing-mode="lr-tb"
       unicode-bidi="normal"
       text-decoration="none"
       id="text1072"
       style="text-decoration:none;text-decoration-line:none;stroke-width:1"
       x="1882.2091"
       y="758.05505">Clustering</text>
  </g>
  <g
     id="g3733"
     transform="translate(0,-3.9999914)">
    <path
       d="m 1556.5,353.501 c 0,-20.987 17.01,-38.001 38,-38.001 h 932 c 20.99,0 38,17.014 38,38.001 v 151.998 c 0,20.987 -17.01,38.001 -38,38.001 h -932 c -20.99,0 -38,-17.014 -38,-38.001 z"
       stroke="#2f528f"
       stroke-width="4.58333"
       stroke-linecap="butt"
       stroke-linejoin="miter"
       stroke-miterlimit="8"
       stroke-opacity="1"
       fill="#dae3f3"
       fill-rule="evenodd"
       fill-opacity="1"
       id="path1076" />
    <text
       fill="#000000"
       fill-opacity="1"
       font-family="Calibri, Calibri_MSFontService, sans-serif"
       font-style="normal"
       font-variant="normal"
       font-weight="400"
       font-stretch="normal"
       font-size="70.695px"
       text-anchor="start"
       direction="ltr"
       writing-mode="lr-tb"
       unicode-bidi="normal"
       text-decoration="none"
       id="text1078"
       style="text-decoration:none;text-decoration-line:none;stroke-width:1"
       x="1705.0402"
       y="448.07126">Data set integration</text>
  </g>
  <g
     id="g3729">
    <path
       d="m 1556.5,41.501 c 0,-20.988 17.01,-38.001 38,-38.001 h 909 c 20.99,0 38,17.013 38,38.001 v 151.998 c 0,20.987 -17.01,38.001 -38,38.001 h -909 c -20.99,0 -38,-17.014 -38,-38.001 z"
       stroke="#2f528f"
       stroke-width="4.58333"
       stroke-linecap="butt"
       stroke-linejoin="miter"
       stroke-miterlimit="8"
       stroke-opacity="1"
       fill="#dae3f3"
       fill-rule="evenodd"
       fill-opacity="1"
       id="path1082" />
    <text
       fill="#000000"
       fill-opacity="1"
       font-family="Calibri, Calibri_MSFontService, sans-serif"
       font-style="normal"
       font-variant="normal"
       font-weight="400"
       font-stretch="normal"
       font-size="70.695px"
       text-anchor="start"
       direction="ltr"
       writing-mode="lr-tb"
       unicode-bidi="normal"
       text-decoration="none"
       id="text1084"
       style="text-decoration:none;text-decoration-line:none;stroke-width:1"
       x="1607.2426"
       y="137.24489">Dimensionality reduction</text>
  </g>
  <g
     id="g3612"
     transform="translate(0,-0.9999609)">
    <path
       d="m 7.5,1579.5 c 0,-20.99 17.014,-38 38.001,-38 H 958.5 c 20.99,0 38,17.01 38,38 v 152 c 0,20.99 -17.01,38 -38,38 H 45.501 c -20.987,0 -38.001,-17.01 -38.001,-38 z"
       stroke="#2f528f"
       stroke-width="4.58333"
       stroke-linecap="butt"
       stroke-linejoin="miter"
       stroke-miterlimit="8"
       stroke-opacity="1"
       fill="#dae3f3"
       fill-rule="evenodd"
       fill-opacity="1"
       id="path1086" />
    <text
       fill="#000000"
       fill-opacity="1"
       font-family="Calibri, Calibri_MSFontService, sans-serif"
       font-style="normal"
       font-variant="normal"
       font-weight="400"
       font-stretch="normal"
       font-size="70.695px"
       text-anchor="start"
       direction="ltr"
       writing-mode="lr-tb"
       unicode-bidi="normal"
       text-decoration="none"
       id="text1088"
       style="text-decoration:none;text-decoration-line:none;stroke-width:1"
       x="197.83546"
       y="1681.8208">Feature selection</text>
  </g>
  <g
     id="g3617"
     transform="translate(0,-37.861411)">
    <path
       d="m 7.5,1270.5 c 0,-20.99 17.014,-38 38.001,-38 H 977.5 c 20.99,0 38,17.01 38,38 v 152 c 0,20.99 -17.01,38 -38,38 H 45.501 c -20.987,0 -38.001,-17.01 -38.001,-38 z"
       stroke="#2f528f"
       stroke-width="4.58333"
       stroke-linecap="butt"
       stroke-linejoin="miter"
       stroke-miterlimit="8"
       stroke-opacity="1"
       fill="#dae3f3"
       fill-rule="evenodd"
       fill-opacity="1"
       id="path1092" />
    <text
       fill="#000000"
       fill-opacity="1"
       font-family="Calibri, Calibri_MSFontService, sans-serif"
       font-style="normal"
       font-variant="normal"
       font-weight="400"
       font-stretch="normal"
       font-size="70.695px"
       text-anchor="start"
       direction="ltr"
       writing-mode="lr-tb"
       unicode-bidi="normal"
       text-decoration="none"
       id="text1096"
       style="text-decoration:none;text-decoration-line:none;stroke-width:1"
       x="-33.730354"
       y="1372.8208"><tspan
         fill="#000000"
         fill-opacity="1"
         font-family="Calibri, Calibri_MSFontService, sans-serif"
         font-style="normal"
         font-variant="normal"
         font-weight="400"
         font-stretch="normal"
         font-size="70.695px"
         text-anchor="start"
         direction="ltr"
         writing-mode="lr-tb"
         unicode-bidi="normal"
         text-decoration="none"
         x="153.98627"
         y="1372.8208"
         id="tspan1094"
         style="text-decoration:none;text-decoration-line:none;stroke-width:1.17406">Count normalisation</tspan></text>
  </g>
  <path
     d="m 996,1656.2958 h 281.349 V 117 l -1.145,1.14 h 257.286 v -2.29 h -258.432 v 1539.3 l 1.146,-1.1458 H 996 Z M 1528.907,130.75 l 27.5,-13.75 -27.5,-13.75 z"
     fill="#4472c4"
     fill-rule="nonzero"
     fill-opacity="1"
     id="path1100" />
  <g
     id="g3741"
     transform="translate(0,-6.9999609)">
    <path
       d="m 1556.5,972.33 c 0,-20.89 16.94,-37.83 37.83,-37.83 h 932.34 c 20.89,0 37.83,16.94 37.83,37.83 v 151.34 c 0,20.89 -16.94,37.83 -37.83,37.83 h -932.34 c -20.89,0 -37.83,-16.94 -37.83,-37.83 z"
       stroke="#2f528f"
       stroke-width="4.58333"
       stroke-linecap="butt"
       stroke-linejoin="miter"
       stroke-miterlimit="8"
       stroke-opacity="1"
       fill="#dae3f3"
       fill-rule="evenodd"
       fill-opacity="1"
       id="path1102" />
    <text
       fill="#000000"
       fill-opacity="1"
       font-family="Calibri, Calibri_MSFontService, sans-serif"
       font-style="normal"
       font-variant="normal"
       font-weight="400"
       font-stretch="normal"
       font-size="70.695px"
       text-anchor="start"
       direction="ltr"
       writing-mode="lr-tb"
       unicode-bidi="normal"
       text-decoration="none"
       id="text1104"
       style="text-decoration:none;text-decoration-line:none;stroke-width:1"
       x="1676.959"
       y="1067.5551">Cluster marker genes</text>
  </g>
  <g
     id="g3746"
     transform="translate(0,2.0000391)">
    <path
       d="m 1556.5,1270.33 c 0,-20.89 16.94,-37.83 37.83,-37.83 h 932.34 c 20.89,0 37.83,16.94 37.83,37.83 v 151.34 c 0,20.89 -16.94,37.83 -37.83,37.83 h -932.34 c -20.89,0 -37.83,-16.94 -37.83,-37.83 z"
       stroke="#2f528f"
       stroke-width="4.58333"
       stroke-linecap="butt"
       stroke-linejoin="miter"
       stroke-miterlimit="8"
       stroke-opacity="1"
       fill="#dae3f3"
       fill-rule="evenodd"
       fill-opacity="1"
       id="path1106" />
    <text
       fill="#000000"
       fill-opacity="1"
       font-family="Calibri, Calibri_MSFontService, sans-serif"
       font-style="normal"
       font-variant="normal"
       font-weight="400"
       font-stretch="normal"
       font-size="70.695px"
       text-anchor="start"
       direction="ltr"
       writing-mode="lr-tb"
       unicode-bidi="normal"
       text-decoration="none"
       id="text1110"
       style="text-decoration:none;text-decoration-line:none;stroke-width:1"
       x="1657.8699"
       y="1330.3319">Differential expression <tspan
   fill="#000000"
   fill-opacity="1"
   font-family="Calibri, Calibri_MSFontService, sans-serif"
   font-style="normal"
   font-variant="normal"
   font-weight="400"
   font-stretch="normal"
   font-size="70.695px"
   text-anchor="start"
   direction="ltr"
   writing-mode="lr-tb"
   unicode-bidi="normal"
   text-decoration="none"
   x="1695.1907"
   y="1414.6549"
   id="tspan1108"
   style="text-decoration:none;text-decoration-line:none;stroke-width:1.17406">between conditions</tspan></text>
  </g>
  <g
     id="g3751"
     transform="translate(0,3.9100647e-5)">
    <path
       d="m 1556.5,1579.33 c 0,-20.89 16.94,-37.83 37.83,-37.83 h 932.34 c 20.89,0 37.83,16.94 37.83,37.83 v 151.34 c 0,20.89 -16.94,37.83 -37.83,37.83 h -932.34 c -20.89,0 -37.83,-16.94 -37.83,-37.83 z"
       stroke="#2f528f"
       stroke-width="4.58333"
       stroke-linecap="butt"
       stroke-linejoin="miter"
       stroke-miterlimit="8"
       stroke-opacity="1"
       fill="#dae3f3"
       fill-rule="evenodd"
       fill-opacity="1"
       id="path1114" />
    <text
       fill="#000000"
       fill-opacity="1"
       font-family="Calibri, Calibri_MSFontService, sans-serif"
       font-style="normal"
       font-variant="normal"
       font-weight="400"
       font-stretch="normal"
       font-size="70.695px"
       text-anchor="start"
       direction="ltr"
       writing-mode="lr-tb"
       unicode-bidi="normal"
       text-decoration="none"
       id="text1118"
       style="text-decoration:none;text-decoration-line:none;stroke-width:1"
       x="1655.3156"
       y="1639.3319">Differential abundance <tspan
   fill="#000000"
   fill-opacity="1"
   font-family="Calibri, Calibri_MSFontService, sans-serif"
   font-style="normal"
   font-variant="normal"
   font-weight="400"
   font-stretch="normal"
   font-size="70.695px"
   text-anchor="start"
   direction="ltr"
   writing-mode="lr-tb"
   unicode-bidi="normal"
   text-decoration="none"
   x="1698.9995"
   y="1723.6549"
   id="tspan1116"
   style="text-decoration:none;text-decoration-line:none;stroke-width:1.17406">between conditions</tspan></text>
  </g>
  <g
     id="g3890"
     transform="translate(0,-3)">
    <path
       d="M 7.5,44.334 C 7.5,23.439 24.439,6.5 45.334,6.5 H 977.67 c 20.89,0 37.83,16.939 37.83,37.834 v 151.332 c 0,20.895 -16.94,37.834 -37.83,37.834 H 45.334 C 24.439,233.5 7.5,216.561 7.5,195.666 Z"
       stroke="#2f528f"
       stroke-width="4.58333"
       stroke-linecap="butt"
       stroke-linejoin="miter"
       stroke-miterlimit="8"
       stroke-opacity="1"
       fill="#dae3f3"
       fill-rule="evenodd"
       fill-opacity="1"
       id="path3886" />
    <text
       fill="#000000"
       fill-opacity="1"
       font-family="Calibri, Calibri_MSFontService, sans-serif"
       font-style="normal"
       font-variant="normal"
       font-weight="400"
       font-stretch="normal"
       font-size="70.695px"
       text-anchor="start"
       direction="ltr"
       writing-mode="lr-tb"
       unicode-bidi="normal"
       text-decoration="none"
       id="text3888"
       style="text-decoration:none;text-decoration-line:none;stroke-width:1"
       x="39.46936"
       y="139.55504">Sequencing quality control</text>
  </g>
  <g
     id="g3900"
     transform="translate(0,-42.361511)">
    <path
       d="M 7.4999999,457.48293 C 7.4999999,422.82167 47.422,394.723 96.668,394.723 H 926.33 c 49.25,0 89.17,28.09867 89.17,62.75993 v 251.0327 c 0,34.66408 -39.92,62.76134 -89.17,62.76134 H 96.668 c -49.246,0 -89.1680001,-28.09726 -89.1680001,-62.76134 z"
       stroke="#2f528f"
       stroke-width="4.58333"
       stroke-linecap="butt"
       stroke-linejoin="miter"
       stroke-miterlimit="8"
       stroke-opacity="1"
       fill="#dae3f3"
       fill-rule="evenodd"
       fill-opacity="1"
       id="path3892" />
    <text
       fill="#000000"
       fill-opacity="1"
       font-family="Calibri, Calibri_MSFontService, sans-serif"
       font-style="normal"
       font-variant="normal"
       font-weight="400"
       font-stretch="normal"
       font-size="70.695px"
       text-anchor="start"
       direction="ltr"
       writing-mode="lr-tb"
       unicode-bidi="normal"
       text-decoration="none"
       id="text3898"
       style="text-decoration:none;text-decoration-line:none;stroke-width:1"
       x="217.29886"
       y="518.23206">Read alignment,<tspan
   fill="#000000"
   fill-opacity="1"
   font-family="Calibri, Calibri_MSFontService, sans-serif"
   font-style="normal"
   font-variant="normal"
   font-weight="400"
   font-stretch="normal"
   font-size="70.695px"
   text-anchor="start"
   direction="ltr"
   writing-mode="lr-tb"
   unicode-bidi="normal"
   text-decoration="none"
   x="197.87723"
   y="602.55499"
   id="tspan3894"
   style="text-decoration:none;text-decoration-line:none;stroke-width:1.17406">Feature counting,</tspan><tspan
   fill="#000000"
   fill-opacity="1"
   font-family="Calibri, Calibri_MSFontService, sans-serif"
   font-style="normal"
   font-variant="normal"
   font-weight="400"
   font-stretch="normal"
   font-size="70.695px"
   text-anchor="start"
   direction="ltr"
   writing-mode="lr-tb"
   unicode-bidi="normal"
   text-decoration="none"
   x="297.89365"
   y="686.87799"
   id="tspan3896"
   style="text-decoration:none;text-decoration-line:none;stroke-width:1.17406">Cell calling</tspan></text>
  </g>
  <g
     id="g3906"
     transform="translate(0,-75.722983)">
    <path
       d="m 7.5,961.5 c 0,-20.99 17.014,-38 38.001,-38 H 977.5 c 20.99,0 38,17.01 38,38 v 152 c 0,20.99 -17.01,38 -38,38 H 45.501 c -20.987,0 -38.001,-17.01 -38.001,-38 z"
       stroke="#2f528f"
       stroke-width="4.58333"
       stroke-linecap="butt"
       stroke-linejoin="miter"
       stroke-miterlimit="8"
       stroke-opacity="1"
       fill="#dae3f3"
       fill-rule="evenodd"
       fill-opacity="1"
       id="path3902" />
    <text
       fill="#000000"
       fill-opacity="1"
       font-family="Calibri, Calibri_MSFontService, sans-serif"
       font-style="normal"
       font-variant="normal"
       font-weight="400"
       font-stretch="normal"
       font-size="70.695px"
       text-anchor="start"
       direction="ltr"
       writing-mode="lr-tb"
       unicode-bidi="normal"
       text-decoration="none"
       id="text3904"
       style="text-decoration:none;text-decoration-line:none;stroke-width:1"
       x="252.02036"
       y="1057.2449">Quality control</text>
  </g>
  <g
     id="g3912"
     transform="translate(0,-4.9999609)">
    <path
       d="m 1556.5,662.501 c 0,-20.987 17.01,-38.001 38,-38.001 h 932 c 20.99,0 38,17.014 38,38.001 V 814.5 c 0,20.99 -17.01,38 -38,38 h -932 c -20.99,0 -38,-17.01 -38,-38 z"
       stroke="#2f528f"
       stroke-width="4.58333"
       stroke-linecap="butt"
       stroke-linejoin="miter"
       stroke-miterlimit="8"
       stroke-opacity="1"
       fill="#dae3f3"
       fill-rule="evenodd"
       fill-opacity="1"
       id="path3908" />
    <text
       fill="#000000"
       fill-opacity="1"
       font-family="Calibri, Calibri_MSFontService, sans-serif"
       font-style="normal"
       font-variant="normal"
       font-weight="400"
       font-stretch="normal"
       font-size="70.695px"
       text-anchor="start"
       direction="ltr"
       writing-mode="lr-tb"
       unicode-bidi="normal"
       text-decoration="none"
       id="text3910"
       style="text-decoration:none;text-decoration-line:none;stroke-width:1"
       x="1882.2091"
       y="758.05505">Clustering</text>
  </g>
  <g
     id="g3918"
     transform="translate(0,-3.9999914)">
    <path
       d="m 1556.5,353.501 c 0,-20.987 17.01,-38.001 38,-38.001 h 932 c 20.99,0 38,17.014 38,38.001 v 151.998 c 0,20.987 -17.01,38.001 -38,38.001 h -932 c -20.99,0 -38,-17.014 -38,-38.001 z"
       stroke="#2f528f"
       stroke-width="4.58333"
       stroke-linecap="butt"
       stroke-linejoin="miter"
       stroke-miterlimit="8"
       stroke-opacity="1"
       fill="#dae3f3"
       fill-rule="evenodd"
       fill-opacity="1"
       id="path3914" />
    <text
       fill="#000000"
       fill-opacity="1"
       font-family="Calibri, Calibri_MSFontService, sans-serif"
       font-style="normal"
       font-variant="normal"
       font-weight="400"
       font-stretch="normal"
       font-size="70.695px"
       text-anchor="start"
       direction="ltr"
       writing-mode="lr-tb"
       unicode-bidi="normal"
       text-decoration="none"
       id="text3916"
       style="text-decoration:none;text-decoration-line:none;stroke-width:1"
       x="1705.0402"
       y="448.07126">Data set integration</text>
  </g>
  <g
     id="g3924">
    <path
       d="m 1556.5,41.501 c 0,-20.988 17.01,-38.001 38,-38.001 h 909 c 20.99,0 38,17.013 38,38.001 v 151.998 c 0,20.987 -17.01,38.001 -38,38.001 h -909 c -20.99,0 -38,-17.014 -38,-38.001 z"
       stroke="#2f528f"
       stroke-width="4.58333"
       stroke-linecap="butt"
       stroke-linejoin="miter"
       stroke-miterlimit="8"
       stroke-opacity="1"
       fill="#dae3f3"
       fill-rule="evenodd"
       fill-opacity="1"
       id="path3920" />
    <text
       fill="#000000"
       fill-opacity="1"
       font-family="Calibri, Calibri_MSFontService, sans-serif"
       font-style="normal"
       font-variant="normal"
       font-weight="400"
       font-stretch="normal"
       font-size="70.695px"
       text-anchor="start"
       direction="ltr"
       writing-mode="lr-tb"
       unicode-bidi="normal"
       text-decoration="none"
       id="text3922"
       style="text-decoration:none;text-decoration-line:none;stroke-width:1"
       x="1607.2426"
       y="137.24489">Dimensionality reduction</text>
  </g>
  <g
     id="g3930"
     transform="translate(0,-0.9999609)">
    <path
       d="m 7.5,1579.5 c 0,-20.99 17.014,-38 38.001,-38 H 958.5 c 20.99,0 38,17.01 38,38 v 152 c 0,20.99 -17.01,38 -38,38 H 45.501 c -20.987,0 -38.001,-17.01 -38.001,-38 z"
       stroke="#2f528f"
       stroke-width="4.58333"
       stroke-linecap="butt"
       stroke-linejoin="miter"
       stroke-miterlimit="8"
       stroke-opacity="1"
       fill="#dae3f3"
       fill-rule="evenodd"
       fill-opacity="1"
       id="path3926" />
    <text
       fill="#000000"
       fill-opacity="1"
       font-family="Calibri, Calibri_MSFontService, sans-serif"
       font-style="normal"
       font-variant="normal"
       font-weight="400"
       font-stretch="normal"
       font-size="70.695px"
       text-anchor="start"
       direction="ltr"
       writing-mode="lr-tb"
       unicode-bidi="normal"
       text-decoration="none"
       id="text3928"
       style="text-decoration:none;text-decoration-line:none;stroke-width:1"
       x="197.83546"
       y="1681.8208">Feature selection</text>
  </g>
  <g
     id="g3938"
     transform="translate(0,-37.861411)">
    <path
       d="m 7.5,1270.5 c 0,-20.99 17.014,-38 38.001,-38 H 977.5 c 20.99,0 38,17.01 38,38 v 152 c 0,20.99 -17.01,38 -38,38 H 45.501 c -20.987,0 -38.001,-17.01 -38.001,-38 z"
       stroke="#2f528f"
       stroke-width="4.58333"
       stroke-linecap="butt"
       stroke-linejoin="miter"
       stroke-miterlimit="8"
       stroke-opacity="1"
       fill="#dae3f3"
       fill-rule="evenodd"
       fill-opacity="1"
       id="path3932" />
    <text
       fill="#000000"
       fill-opacity="1"
       font-family="Calibri, Calibri_MSFontService, sans-serif"
       font-style="normal"
       font-variant="normal"
       font-weight="400"
       font-stretch="normal"
       font-size="70.695px"
       text-anchor="start"
       direction="ltr"
       writing-mode="lr-tb"
       unicode-bidi="normal"
       text-decoration="none"
       id="text3936"
       style="text-decoration:none;text-decoration-line:none;stroke-width:1"
       x="-33.730354"
       y="1372.8208"><tspan
         fill="#000000"
         fill-opacity="1"
         font-family="Calibri, Calibri_MSFontService, sans-serif"
         font-style="normal"
         font-variant="normal"
         font-weight="400"
         font-stretch="normal"
         font-size="70.695px"
         text-anchor="start"
         direction="ltr"
         writing-mode="lr-tb"
         unicode-bidi="normal"
         text-decoration="none"
         x="153.98627"
         y="1372.8208"
         id="tspan3934"
         style="text-decoration:none;text-decoration-line:none;stroke-width:1.17406">Count normalisation</tspan></text>
  </g>
  <g
     id="g3944"
     transform="translate(0,-6.9999609)">
    <path
       d="m 1556.5,972.33 c 0,-20.89 16.94,-37.83 37.83,-37.83 h 932.34 c 20.89,0 37.83,16.94 37.83,37.83 v 151.34 c 0,20.89 -16.94,37.83 -37.83,37.83 h -932.34 c -20.89,0 -37.83,-16.94 -37.83,-37.83 z"
       stroke="#2f528f"
       stroke-width="4.58333"
       stroke-linecap="butt"
       stroke-linejoin="miter"
       stroke-miterlimit="8"
       stroke-opacity="1"
       fill="#dae3f3"
       fill-rule="evenodd"
       fill-opacity="1"
       id="path3940" />
    <text
       fill="#000000"
       fill-opacity="1"
       font-family="Calibri, Calibri_MSFontService, sans-serif"
       font-style="normal"
       font-variant="normal"
       font-weight="400"
       font-stretch="normal"
       font-size="70.695px"
       text-anchor="start"
       direction="ltr"
       writing-mode="lr-tb"
       unicode-bidi="normal"
       text-decoration="none"
       id="text3942"
       style="text-decoration:none;text-decoration-line:none;stroke-width:1"
       x="1676.959"
       y="1067.5551">Cluster marker genes</text>
  </g>
  <g
     id="g3952"
     transform="translate(0,2.0000391)">
    <path
       d="m 1556.5,1270.33 c 0,-20.89 16.94,-37.83 37.83,-37.83 h 932.34 c 20.89,0 37.83,16.94 37.83,37.83 v 151.34 c 0,20.89 -16.94,37.83 -37.83,37.83 h -932.34 c -20.89,0 -37.83,-16.94 -37.83,-37.83 z"
       stroke="#2f528f"
       stroke-width="4.58333"
       stroke-linecap="butt"
       stroke-linejoin="miter"
       stroke-miterlimit="8"
       stroke-opacity="1"
       fill="#dae3f3"
       fill-rule="evenodd"
       fill-opacity="1"
       id="path3946" />
    <text
       fill="#000000"
       fill-opacity="1"
       font-family="Calibri, Calibri_MSFontService, sans-serif"
       font-style="normal"
       font-variant="normal"
       font-weight="400"
       font-stretch="normal"
       font-size="70.695px"
       text-anchor="start"
       direction="ltr"
       writing-mode="lr-tb"
       unicode-bidi="normal"
       text-decoration="none"
       id="text3950"
       style="text-decoration:none;text-decoration-line:none;stroke-width:1"
       x="1657.8699"
       y="1330.3319">Differential expression <tspan
   fill="#000000"
   fill-opacity="1"
   font-family="Calibri, Calibri_MSFontService, sans-serif"
   font-style="normal"
   font-variant="normal"
   font-weight="400"
   font-stretch="normal"
   font-size="70.695px"
   text-anchor="start"
   direction="ltr"
   writing-mode="lr-tb"
   unicode-bidi="normal"
   text-decoration="none"
   x="1695.1907"
   y="1414.6549"
   id="tspan3948"
   style="text-decoration:none;text-decoration-line:none;stroke-width:1.17406">between conditions</tspan></text>
  </g>
  <g
     id="g3960"
     transform="translate(0,3.9100647e-5)">
    <path
       d="m 1556.5,1579.33 c 0,-20.89 16.94,-37.83 37.83,-37.83 h 932.34 c 20.89,0 37.83,16.94 37.83,37.83 v 151.34 c 0,20.89 -16.94,37.83 -37.83,37.83 h -932.34 c -20.89,0 -37.83,-16.94 -37.83,-37.83 z"
       stroke="#2f528f"
       stroke-width="4.58333"
       stroke-linecap="butt"
       stroke-linejoin="miter"
       stroke-miterlimit="8"
       stroke-opacity="1"
       fill="#dae3f3"
       fill-rule="evenodd"
       fill-opacity="1"
       id="path3954" />
    <text
       fill="#000000"
       fill-opacity="1"
       font-family="Calibri, Calibri_MSFontService, sans-serif"
       font-style="normal"
       font-variant="normal"
       font-weight="400"
       font-stretch="normal"
       font-size="70.695px"
       text-anchor="start"
       direction="ltr"
       writing-mode="lr-tb"
       unicode-bidi="normal"
       text-decoration="none"
       id="text3958"
       style="text-decoration:none;text-decoration-line:none;stroke-width:1"
       x="1655.3156"
       y="1639.3319">Differential abundance <tspan
   fill="#000000"
   fill-opacity="1"
   font-family="Calibri, Calibri_MSFontService, sans-serif"
   font-style="normal"
   font-variant="normal"
   font-weight="400"
   font-stretch="normal"
   font-size="70.695px"
   text-anchor="start"
   direction="ltr"
   writing-mode="lr-tb"
   unicode-bidi="normal"
   text-decoration="none"
   x="1698.9995"
   y="1723.6549"
   id="tspan3956"
   style="text-decoration:none;text-decoration-line:none;stroke-width:1.17406">between conditions</tspan></text>
  </g>
</svg>
